PathFileType	4	(X/Y/Z)	C:\Data\4407\4407cd02.trc
DataRate	CameraRate	NumFrames	NumMarkers	Units	OrigDataRate	OrigDataStartFrame	OrigNumFrames
200.00	200.00	      4	29	mm	200.00	1251	      2000
Frame#	Time	Offset			RShoulder			RUpperArm			RElbow			RForearm			RWrist			LShoulder			LUpperArm			LElbow			LForearm			LWrist			LPSIS			RPSIS			RASIS			RThigh			RKnee			RShank			RAnkle			RHeel			RLat5			RToe			LASIS			LThigh			LKnee			LShank			LAnkle			LHeel			LLat5			LToe			
		X1	Y1	Z1	X2	Y2	Z2	X3	Y3	Z3	X4	Y4	Z4	X5	Y5	Z5	X6	Y6	Z6	X7	Y7	Z7	X8	Y8	Z8	X9	Y9	Z9	X10	Y10	Z10	X11	Y11	Z11	X12	Y12	Z12	X13	Y13	Z13	X14	Y14	Z14	X15	Y15	Z15	X16	Y16	Z16	X17	Y17	Z17	X18	Y18	Z18	X19	Y19	Z19	X20	Y20	Z20	X21	Y21	Z21	X22	Y22	Z22	X23	Y23	Z23	X24	Y24	Z24	X25	Y25	Z25	X26	Y26	Z26	X27	Y27	Z27	X28	Y28	Z28	X29	Y29	Z29	

1251	6.250	341.39719	-233.95236	1373.52258	456.88931	-105.43574	1480.82166	518.21112	-202.05655	1306.83813	615.39594	-176.01863	1183.26563	662.49500	-127.47425	1031.50928	744.98706	-17.22464	1011.78387	106.66399	-109.12266	1489.59412	64.74783	-213.77391	1282.09094	-18.60591	-200.51744	1188.69055	-78.68269	-149.39638	1047.85559	-172.00237	-31.36456	1008.15210	275.64755	-259.54422	1001.06824	324.31165	-250.51402	995.13953	385.92697	-27.25716	994.86188	342.59622	68.61751	709.88635	413.10718	81.57011	523.74036	369.80301	139.62212	470.67648	383.33047	219.66386	127.19537	336.11484	182.11298	69.91108	428.12570	360.19724	150.17316	320.11978	373.49689	156.95093	137.23973	-67.74000	980.76825	180.90582	-109.66144	645.05115	155.75107	-234.26677	508.16351	206.35155	-230.90739	430.41632	213.99843	-429.33890	140.56631	262.63150	-493.95044	130.23454	181.78455	-302.03271	54.22482	293.18723	-301.04880	43.72963	
1252	6.255	341.48990	-233.27293	1372.64453	457.02682	-105.16004	1480.35205	517.99823	-202.16350	1306.34631	615.45496	-176.54999	1182.81714	662.51300	-127.66516	1031.15857	744.98914	-17.20161	1011.83905	106.92212	-108.65665	1489.06677	65.25339	-213.75259	1281.69202	-18.21362	-200.73135	1188.31433	-78.47932	-149.40910	1047.60059	-171.93210	-31.43701	1008.12024	276.69382	-258.72565	1000.39532	325.04672	-249.56543	994.29767	385.95938	-26.30131	994.24628	342.42899	68.92737	709.82617	412.55518	81.79136	522.88184	369.28735	139.98660	470.10092	382.18997	220.63495	126.56631	334.77597	183.46767	69.20675	426.34348	361.28369	149.29857	319.21301	374.41495	157.27444	137.24985	-67.38076	980.06946	180.78979	-109.74126	644.36615	155.63521	-234.80409	507.69327	206.24115	-232.28580	429.82333	213.49847	-434.48459	142.20088	262.11917	-499.41092	132.91492	181.78346	-308.77054	54.08125	293.07764	-307.85211	43.92158	
1253	6.260	341.66241	-232.65028	1372.03430	457.22870	-104.81180	1479.85779	517.79260	-202.32132	1305.83008	615.32971	-177.14619	1182.32190	662.53607	-127.77494	1030.86279	744.96497	-17.13756	1011.92993	107.21884	-108.15308	1488.51392	65.82877	-213.56786	1281.25879	-17.83832	-200.93993	1187.97986	-78.42761	-149.47533	1047.34802	-171.87215	-31.73001	1008.01819	277.35657	-258.07831	999.69293	326.05136	-248.61292	993.46332	386.00223	-25.22254	993.54437	342.55011	69.65048	710.37170	412.31674	82.15962	522.41327	368.58658	140.69304	469.27866	380.82507	221.12651	125.45049	333.48581	183.67253	68.17452	425.48004	361.60251	148.81554	318.06763	374.57669	156.85344	137.35042	-66.89775	979.58459	180.55765	-109.80621	643.76099	155.36377	-235.41153	507.31595	205.83556	-233.65509	429.25677	213.18008	-439.52798	143.85652	261.33331	-504.36182	135.31876	181.56308	-315.38095	54.19243	293.12149	-314.51251	44.05061	
1254	6.265	341.98132	-231.95428	1371.19653	457.43130	-104.38336	1479.38135	517.41553	-202.22646	1305.33252	615.36053	-177.58862	1181.83826	662.51440	-127.91383	1030.53955	744.95001	-17.15417	1011.95190	107.62442	-107.58094	1488.00427	66.46127	-213.27698	1280.80115	-17.43600	-201.09474	1187.62317	-78.28255	-149.60643	1047.01550	-171.80292	-31.85956	1007.95795	278.20032	-257.06308	998.95483	326.57474	-247.65439	992.70319	386.22928	-24.05781	992.73444	342.44580	70.32536	711.02905	412.20523	82.55894	521.76251	368.17242	141.01982	468.52347	379.71198	220.46381	124.22089	332.36130	183.24332	66.68222	424.27338	360.86151	147.58762	316.96634	374.11496	155.53587	137.50613	-66.37445	978.79517	180.28030	-109.80470	642.83795	155.00993	-235.77069	506.73181	205.42551	-235.07483	428.51114	212.57489	-444.54315	145.85605	260.71234	-509.68573	138.30031	181.53114	-322.16223	53.99411	292.90042	-321.47586	44.04773	
